G04 ---------------------------- Layer name :BOTTOM SOLDER LAYER*
G04 EasyEDA v5.4.12, Fri, 01 Jun 2018 01:53:27 GMT*
G04 b752a15d14d94793b98c049bcf485ef1*
G04 Gerber Generator version 0.2*
G04 Scale: 100 percent, Rotated: No, Reflected: No *
G04 Dimensions in millimeters *
G04 leading zeros omitted , absolute positions ,3 integer and 3 decimal *
%FSLAX33Y33*%
%MOMM*%
G90*
G71D02*

%ADD16R,1.103198X1.003198*%
%ADD19C,2.403196*%
%ADD20C,1.803197*%
%ADD21R,1.803197X1.803197*%

%LPD*%
G54D19*
G01X36972Y83948D03*
G01X34432Y90298D03*
G01X56972Y83948D03*
G01X54432Y90298D03*
G01X76972Y83948D03*
G01X74432Y90298D03*
G01X96972Y83948D03*
G01X94432Y90298D03*
G01X116972Y83948D03*
G01X114432Y90298D03*
G01X136972Y83948D03*
G01X134432Y90298D03*
G01X156972Y83948D03*
G01X154432Y90298D03*
G01X176971Y83948D03*
G01X174431Y90298D03*
G01X196971Y83948D03*
G01X194431Y90298D03*
G01X216971Y83948D03*
G01X214431Y90298D03*
G01X236971Y83948D03*
G01X234431Y90298D03*
G01X256971Y83948D03*
G01X254431Y90298D03*
G01X276971Y83948D03*
G01X274431Y90298D03*
G01X36972Y63948D03*
G01X34432Y70298D03*
G01X56972Y63948D03*
G01X54432Y70298D03*
G01X76972Y63948D03*
G01X74432Y70298D03*
G01X96972Y63948D03*
G01X94432Y70298D03*
G01X116972Y63948D03*
G01X114432Y70298D03*
G01X136972Y63948D03*
G01X134432Y70298D03*
G01X156972Y63948D03*
G01X154432Y70298D03*
G01X176971Y63948D03*
G01X174431Y70298D03*
G01X196971Y63948D03*
G01X194431Y70298D03*
G01X216971Y63948D03*
G01X214431Y70298D03*
G01X236971Y63948D03*
G01X234431Y70298D03*
G01X256971Y63948D03*
G01X254431Y70298D03*
G01X276971Y63948D03*
G01X274431Y70298D03*
G01X36972Y43948D03*
G01X34432Y50298D03*
G01X56972Y43948D03*
G01X54432Y50298D03*
G01X76972Y43948D03*
G01X74432Y50298D03*
G01X96972Y43948D03*
G01X94432Y50298D03*
G01X116972Y43948D03*
G01X114432Y50298D03*
G01X136972Y43948D03*
G01X134432Y50298D03*
G01X156972Y43948D03*
G01X154432Y50298D03*
G01X176971Y43948D03*
G01X174431Y50298D03*
G01X196971Y43948D03*
G01X194431Y50298D03*
G01X216971Y43948D03*
G01X214431Y50298D03*
G01X236971Y43948D03*
G01X234431Y50298D03*
G01X256971Y43948D03*
G01X254431Y50298D03*
G01X276971Y43948D03*
G01X274431Y50298D03*
G01X36972Y23948D03*
G01X34432Y30298D03*
G01X56972Y23948D03*
G01X54432Y30298D03*
G01X76972Y23948D03*
G01X74432Y30298D03*
G01X96972Y23948D03*
G01X94432Y30298D03*
G01X116972Y23948D03*
G01X114432Y30298D03*
G01X136972Y23948D03*
G01X134432Y30298D03*
G01X156972Y23948D03*
G01X154432Y30298D03*
G01X176971Y23948D03*
G01X174431Y30298D03*
G01X196971Y23948D03*
G01X194431Y30298D03*
G01X216971Y23948D03*
G01X214431Y30298D03*
G01X236971Y23948D03*
G01X234431Y30298D03*
G01X256971Y23948D03*
G01X254431Y30298D03*
G01X276971Y23948D03*
G01X274431Y30298D03*
G01X36972Y3948D03*
G01X34432Y10298D03*
G01X56972Y3948D03*
G01X54432Y10298D03*
G01X76972Y3948D03*
G01X74432Y10298D03*
G01X96766Y3948D03*
G01X94226Y10298D03*
G01X116972Y3948D03*
G01X114432Y10298D03*
G01X136972Y3948D03*
G01X134432Y10298D03*
G01X156972Y3948D03*
G01X154432Y10298D03*
G01X176971Y3948D03*
G01X174431Y10298D03*
G01X196971Y3948D03*
G01X194431Y10298D03*
G01X216971Y3948D03*
G01X214431Y10298D03*
G01X236971Y3948D03*
G01X234431Y10298D03*
G01X256971Y3948D03*
G01X254431Y10298D03*
G01X276971Y3948D03*
G01X274431Y10298D03*
G54D16*
G01X31402Y86996D03*
G01X31402Y84896D03*
G01X49400Y86998D03*
G01X49400Y84898D03*
G01X69199Y86998D03*
G01X69199Y84898D03*
G01X89400Y86998D03*
G01X89400Y84898D03*
G01X109799Y86998D03*
G01X109799Y84898D03*
G01X130002Y86996D03*
G01X130002Y84896D03*
G01X149402Y86996D03*
G01X149402Y84896D03*
G01X169799Y86998D03*
G01X169799Y84898D03*
G01X189202Y86996D03*
G01X189202Y84896D03*
G01X208800Y86996D03*
G01X208800Y84896D03*
G01X228600Y86998D03*
G01X228600Y84898D03*
G01X248602Y86996D03*
G01X248602Y84896D03*
G01X269201Y86996D03*
G01X269201Y84896D03*
G01X31803Y67196D03*
G01X31803Y65096D03*
G01X49400Y67199D03*
G01X49400Y65099D03*
G01X69199Y67199D03*
G01X69199Y65099D03*
G01X89400Y67199D03*
G01X89400Y65099D03*
G01X109799Y67199D03*
G01X109799Y65099D03*
G01X129999Y67199D03*
G01X129999Y65099D03*
G01X149400Y66998D03*
G01X149400Y64898D03*
G01X169799Y66998D03*
G01X169799Y64898D03*
G01X189199Y66998D03*
G01X189199Y64898D03*
G01X208800Y66996D03*
G01X208800Y64896D03*
G01X228602Y66996D03*
G01X228602Y64896D03*
G01X248602Y66996D03*
G01X248602Y64896D03*
G01X269201Y66996D03*
G01X269201Y64896D03*
G01X30800Y47598D03*
G01X30800Y45498D03*
G01X49403Y47595D03*
G01X49403Y45495D03*
G01X69199Y47598D03*
G01X69199Y45498D03*
G01X89402Y47595D03*
G01X89402Y45495D03*
G01X109799Y47598D03*
G01X109799Y45498D03*
G01X130002Y47595D03*
G01X130002Y45495D03*
G01X149400Y47598D03*
G01X149400Y45498D03*
G01X169799Y47598D03*
G01X169799Y45498D03*
G01X189199Y47598D03*
G01X189199Y45498D03*
G01X208800Y47598D03*
G01X208800Y45498D03*
G01X228600Y47598D03*
G01X228600Y45498D03*
G01X248599Y47598D03*
G01X248599Y45498D03*
G01X269199Y47397D03*
G01X269199Y45297D03*
G01X30599Y27397D03*
G01X30599Y25297D03*
G01X49403Y27397D03*
G01X49403Y25297D03*
G01X69199Y27397D03*
G01X69199Y25297D03*
G01X89400Y27397D03*
G01X89400Y25297D03*
G01X109799Y27397D03*
G01X109799Y25297D03*
G01X129999Y27397D03*
G01X129999Y25297D03*
G01X149402Y27397D03*
G01X149402Y25297D03*
G01X169799Y27397D03*
G01X169799Y25297D03*
G01X189199Y27397D03*
G01X189199Y25297D03*
G01X208800Y27397D03*
G01X208800Y25297D03*
G01X228600Y27397D03*
G01X228600Y25297D03*
G01X248599Y27397D03*
G01X248599Y25297D03*
G01X269199Y27397D03*
G01X269199Y25297D03*
G01X30401Y7199D03*
G01X30401Y5099D03*
G01X49403Y7197D03*
G01X49403Y5097D03*
G01X69199Y7199D03*
G01X69199Y5099D03*
G01X89400Y7199D03*
G01X89400Y5099D03*
G01X109799Y7199D03*
G01X109799Y5099D03*
G01X129999Y7199D03*
G01X129999Y5099D03*
G01X149400Y7199D03*
G01X149400Y5099D03*
G01X169799Y7199D03*
G01X169799Y5099D03*
G01X189199Y7199D03*
G01X189199Y5099D03*
G01X208998Y7199D03*
G01X208998Y5099D03*
G01X228600Y7199D03*
G01X228600Y5099D03*
G01X248599Y7199D03*
G01X248599Y5099D03*
G01X269201Y7197D03*
G01X269201Y5097D03*
G54D20*
G01X25819Y103371D03*
G01X25819Y100831D03*
G01X25819Y98291D03*
G01X25819Y95751D03*
G01X25819Y93211D03*
G01X25819Y88131D03*
G01X25819Y90671D03*
G01X25819Y85591D03*
G01X25819Y83051D03*
G01X25819Y80511D03*
G01X25819Y75431D03*
G01X25819Y77971D03*
G54D21*
G01X10579Y103371D03*
G54D20*
G01X10579Y100831D03*
G01X10579Y98291D03*
G01X10579Y95751D03*
G01X10579Y93211D03*
G01X10579Y88131D03*
G01X10579Y90671D03*
G01X10579Y85591D03*
G01X10579Y83051D03*
G01X10579Y80511D03*
G01X10579Y75431D03*
G01X10579Y77971D03*
G01X13119Y75431D03*
G01X15659Y75431D03*
G01X18199Y75431D03*
G01X20739Y75431D03*
G01X23279Y75431D03*
G01X13119Y93211D03*
G01X23279Y93211D03*
M00*
M02*
