;PTH Drill file created by EasyEDA 
M48
METRIC,LZ,000.000
;Holesize 1 = 0.305 METRIC
T01C0.305
;Holesize 2 = 1.100 METRIC
T02C1.100
;Holesize 3 = 1.501 METRIC
T03C1.501
%
G05
G90
T01
X008001Y103399
X018199Y072800
X271800Y099399
X231198Y103000
X211401Y102198
X191401Y101398
X171401Y100397
X150802Y099198
X251599Y103000
T02
X025819Y103371
X025819Y100831
X025819Y098291
X025819Y095751
X025819Y093211
X025819Y088131
X025819Y090671
X025819Y085591
X025819Y083051
X025819Y080511
X025819Y075431
X025819Y077971
X010579Y103371
X010579Y100831
X010579Y098291
X010579Y095751
X010579Y093211
X010579Y088131
X010579Y090671
X010579Y085591
X010579Y083051
X010579Y080511
X010579Y075431
X010579Y077971
X013119Y075431
X015659Y075431
X018199Y075431
X020739Y075431
X023279Y075431
X013119Y093211
X023279Y093211
T03
X036972Y083948
X034432Y090298
X056972Y083948
X054432Y090298
X076972Y083948
X074432Y090298
X096972Y083948
X094432Y090298
X116972Y083948
X114432Y090298
X136972Y083948
X134432Y090298
X156972Y083948
X154432Y090298
X176971Y083948
X174431Y090298
X196971Y083948
X194431Y090298
X216971Y083948
X214431Y090298
X236971Y083948
X234431Y090298
X256971Y083948
X254431Y090298
X276971Y083948
X274431Y090298
X036972Y063948
X034432Y070298
X056972Y063948
X054432Y070298
X076972Y063948
X074432Y070298
X096972Y063948
X094432Y070298
X116972Y063948
X114432Y070298
X136972Y063948
X134432Y070298
X156972Y063948
X154432Y070298
X176971Y063948
X174431Y070298
X196971Y063948
X194431Y070298
X216971Y063948
X214431Y070298
X236971Y063948
X234431Y070298
X256971Y063948
X254431Y070298
X276971Y063948
X274431Y070298
X036972Y043948
X034432Y050298
X056972Y043948
X054432Y050298
X076972Y043948
X074432Y050298
X096972Y043948
X094432Y050298
X116972Y043948
X114432Y050298
X136972Y043948
X134432Y050298
X156972Y043948
X154432Y050298
X176971Y043948
X174431Y050298
X196971Y043948
X194431Y050298
X216971Y043948
X214431Y050298
X236971Y043948
X234431Y050298
X256971Y043948
X254431Y050298
X276971Y043948
X274431Y050298
X036972Y023948
X034432Y030298
X056972Y023948
X054432Y030298
X076972Y023948
X074432Y030298
X096972Y023948
X094432Y030298
X116972Y023948
X114432Y030298
X136972Y023948
X134432Y030298
X156972Y023948
X154432Y030298
X176971Y023948
X174431Y030298
X196971Y023948
X194431Y030298
X216971Y023948
X214431Y030298
X236971Y023948
X234431Y030298
X256971Y023948
X254431Y030298
X276971Y023948
X274431Y030298
X036972Y003948
X034432Y010298
X056972Y003948
X054432Y010298
X076972Y003948
X074432Y010298
X096766Y003948
X094226Y010298
X116972Y003948
X114432Y010298
X136972Y003948
X134432Y010298
X156972Y003948
X154432Y010298
X176971Y003948
X174431Y010298
X196971Y003948
X194431Y010298
X216971Y003948
X214431Y010298
X236971Y003948
X234431Y010298
X256971Y003948
X254431Y010298
X276971Y003948
X274431Y010298
M30
