G04 ---------------------------- Layer name :BOTTOM PASTER LAYER*
G04 EasyEDA v5.4.12, Fri, 01 Jun 2018 01:53:27 GMT*
G04 b752a15d14d94793b98c049bcf485ef1*
G04 Gerber Generator version 0.2*
G04 Scale: 100 percent, Rotated: No, Reflected: No *
G04 Dimensions in millimeters *
G04 leading zeros omitted , absolute positions ,3 integer and 3 decimal *
%FSLAX33Y33*%
%MOMM*%
G90*
G71D02*

%ADD16R,0.899998X0.799998*%

%LPD*%
G54D16*
G01X31402Y86996D03*
G01X31402Y84896D03*
G01X49400Y86998D03*
G01X49400Y84898D03*
G01X69199Y86998D03*
G01X69199Y84898D03*
G01X89400Y86998D03*
G01X89400Y84898D03*
G01X109799Y86998D03*
G01X109799Y84898D03*
G01X130002Y86996D03*
G01X130002Y84896D03*
G01X149402Y86996D03*
G01X149402Y84896D03*
G01X169799Y86998D03*
G01X169799Y84898D03*
G01X189202Y86996D03*
G01X189202Y84896D03*
G01X208800Y86996D03*
G01X208800Y84896D03*
G01X228600Y86998D03*
G01X228600Y84898D03*
G01X248602Y86996D03*
G01X248602Y84896D03*
G01X269201Y86996D03*
G01X269201Y84896D03*
G01X31803Y67196D03*
G01X31803Y65096D03*
G01X49400Y67199D03*
G01X49400Y65099D03*
G01X69199Y67199D03*
G01X69199Y65099D03*
G01X89400Y67199D03*
G01X89400Y65099D03*
G01X109799Y67199D03*
G01X109799Y65099D03*
G01X129999Y67199D03*
G01X129999Y65099D03*
G01X149400Y66998D03*
G01X149400Y64898D03*
G01X169799Y66998D03*
G01X169799Y64898D03*
G01X189199Y66998D03*
G01X189199Y64898D03*
G01X208800Y66996D03*
G01X208800Y64896D03*
G01X228602Y66996D03*
G01X228602Y64896D03*
G01X248602Y66996D03*
G01X248602Y64896D03*
G01X269201Y66996D03*
G01X269201Y64896D03*
G01X30800Y47598D03*
G01X30800Y45498D03*
G01X49403Y47595D03*
G01X49403Y45495D03*
G01X69199Y47598D03*
G01X69199Y45498D03*
G01X89402Y47595D03*
G01X89402Y45495D03*
G01X109799Y47598D03*
G01X109799Y45498D03*
G01X130002Y47595D03*
G01X130002Y45495D03*
G01X149400Y47598D03*
G01X149400Y45498D03*
G01X169799Y47598D03*
G01X169799Y45498D03*
G01X189199Y47598D03*
G01X189199Y45498D03*
G01X208800Y47598D03*
G01X208800Y45498D03*
G01X228600Y47598D03*
G01X228600Y45498D03*
G01X248599Y47598D03*
G01X248599Y45498D03*
G01X269199Y47397D03*
G01X269199Y45297D03*
G01X30599Y27397D03*
G01X30599Y25297D03*
G01X49403Y27397D03*
G01X49403Y25297D03*
G01X69199Y27397D03*
G01X69199Y25297D03*
G01X89400Y27397D03*
G01X89400Y25297D03*
G01X109799Y27397D03*
G01X109799Y25297D03*
G01X129999Y27397D03*
G01X129999Y25297D03*
G01X149402Y27397D03*
G01X149402Y25297D03*
G01X169799Y27397D03*
G01X169799Y25297D03*
G01X189199Y27397D03*
G01X189199Y25297D03*
G01X208800Y27397D03*
G01X208800Y25297D03*
G01X228600Y27397D03*
G01X228600Y25297D03*
G01X248599Y27397D03*
G01X248599Y25297D03*
G01X269199Y27397D03*
G01X269199Y25297D03*
G01X30401Y7199D03*
G01X30401Y5099D03*
G01X49403Y7197D03*
G01X49403Y5097D03*
G01X69199Y7199D03*
G01X69199Y5099D03*
G01X89400Y7199D03*
G01X89400Y5099D03*
G01X109799Y7199D03*
G01X109799Y5099D03*
G01X129999Y7199D03*
G01X129999Y5099D03*
G01X149400Y7199D03*
G01X149400Y5099D03*
G01X169799Y7199D03*
G01X169799Y5099D03*
G01X189199Y7199D03*
G01X189199Y5099D03*
G01X208998Y7199D03*
G01X208998Y5099D03*
G01X228600Y7199D03*
G01X228600Y5099D03*
G01X248599Y7199D03*
G01X248599Y5099D03*
G01X269201Y7197D03*
G01X269201Y5097D03*
M00*
M02*
