;NPTH Drill file created by EasyEDA 
M48
METRIC,LZ,000.000
;Holesize 1 = 3.000 METRIC
T01C3.000
;Holesize 2 = 4.191 METRIC
T02C4.191
%
G05
G90
T01
X004000Y100999
X291000Y100999
X291998Y003999
X004000Y003999
T02
X039512Y087758
X059512Y087758
X079512Y087758
X099512Y087758
X119512Y087758
X139512Y087758
X159512Y087758
X179511Y087758
X199511Y087758
X219511Y087758
X239511Y087758
X259511Y087758
X279511Y087758
X039512Y067758
X059512Y067758
X079512Y067758
X099512Y067758
X119512Y067758
X139512Y067758
X159512Y067758
X179511Y067758
X199511Y067758
X219511Y067758
X239511Y067758
X259511Y067758
X279511Y067758
X039512Y047758
X059512Y047758
X079512Y047758
X099512Y047758
X119512Y047758
X139512Y047758
X159512Y047758
X179511Y047758
X199511Y047758
X219511Y047758
X239511Y047758
X259511Y047758
X279511Y047758
X039512Y027758
X059512Y027758
X079512Y027758
X099512Y027758
X119512Y027758
X139512Y027758
X159512Y027758
X179511Y027758
X199511Y027758
X219511Y027758
X239511Y027758
X259511Y027758
X279511Y027758
X039512Y007758
X059512Y007758
X079512Y007758
X099306Y007758
X119512Y007758
X139512Y007758
X159512Y007758
X179511Y007758
X199511Y007758
X219511Y007758
X239511Y007758
X259511Y007758
X279511Y007758
M30
